<svg width="558" height="217" viewBox="0 0 558 217" fill="none" xmlns="http://www.w3.org/2000/svg">
<path d="M271.905 36.309C278.814 36.309 283.126 33.124 284.841 26.95L282.048 26.166C280.627 31.36 277.295 33.418 271.954 33.418C265.143 33.418 260.782 28.616 260.782 19.453C260.782 10.143 265.584 5.341 272.101 5.341C277.344 5.341 280.529 7.497 281.754 12.887L284.596 12.201C283.175 5.733 279.108 2.499 272.101 2.499C263.575 2.499 257.548 8.918 257.548 19.551C257.548 30.233 262.938 36.309 271.905 36.309Z" fill="black"/>
<path d="M300.059 36.26C306.968 36.26 311.427 31.262 311.427 23.569C311.427 15.729 307.017 10.976 300.108 10.976C293.15 10.976 288.74 15.974 288.74 23.618C288.74 31.507 293.101 36.26 300.059 36.26ZM300.108 33.565C295.061 33.565 291.876 29.841 291.876 23.569C291.876 17.395 294.963 13.671 300.059 13.671C305.204 13.671 308.34 17.444 308.34 23.618C308.34 29.792 305.204 33.565 300.108 33.565Z" fill="black"/>
<path d="M345.467 10.976C340.763 10.976 338.068 13.72 336.794 16.513C335.716 12.887 332.972 10.976 328.905 10.976C324.691 10.976 322.094 13.181 320.771 15.68L320.526 11.564H317.782V35.721H320.82V20.09C321.457 16.905 323.956 13.769 328.072 13.769C332.188 13.769 334.295 16.464 334.295 21.119V35.721H337.333V20.58V20.335C337.872 17.101 340.469 13.769 344.683 13.769C348.75 13.769 350.857 16.464 350.857 21.119V35.721H353.895V20.58C353.895 14.357 350.857 10.976 345.467 10.976Z" fill="black"/>
<path d="M389.491 10.976C384.787 10.976 382.092 13.72 380.818 16.513C379.74 12.887 376.996 10.976 372.929 10.976C368.715 10.976 366.118 13.181 364.795 15.68L364.55 11.564H361.806V35.721H364.844V20.09C365.481 16.905 367.98 13.769 372.096 13.769C376.212 13.769 378.319 16.464 378.319 21.119V35.721H381.357V20.58V20.335C381.896 17.101 384.493 13.769 388.707 13.769C392.774 13.769 394.881 16.464 394.881 21.119V35.721H397.919V20.58C397.919 14.357 394.881 10.976 389.491 10.976Z" fill="black"/>
<path d="M425.037 33.271C424.694 33.418 424.351 33.516 423.714 33.516C422.685 33.516 422.342 32.83 422.342 31.654V19.943C422.342 13.769 419.5 10.976 413.473 10.976C408.573 10.976 405.388 13.377 404.604 17.64L407.348 18.13C407.985 14.945 410.239 13.72 413.326 13.72C417.344 13.72 419.304 15.631 419.304 19.894V22.54C417.687 22.344 416.168 22.197 414.159 22.197C407.544 22.197 403.82 24.843 403.82 29.645C403.82 34.006 406.809 36.309 411.268 36.309C414.796 36.309 417.54 35.035 419.451 32.536C419.5 35.035 420.823 36.113 423.077 36.113C423.812 36.113 424.547 35.966 425.331 35.672L425.037 33.271ZM411.856 33.761C408.818 33.761 406.858 32.389 406.858 29.498C406.858 26.215 409.455 24.647 414.208 24.647C416.315 24.647 418.03 24.745 419.304 24.941V29.351C417.54 32.536 414.943 33.761 411.856 33.761Z" fill="black"/>
<path d="M441.598 10.976C437.286 10.976 434.689 13.23 433.366 15.68L433.121 11.564H430.377V35.721H433.415V20.09C434.052 16.954 436.551 13.769 440.863 13.769C445.077 13.769 447.233 16.562 447.233 21.462V35.721H450.271V20.727C450.271 14.406 447.086 10.976 441.598 10.976Z" fill="black"/>
<path d="M474.644 0V15.239C473.223 12.495 470.626 10.976 466.951 10.976C460.973 10.976 456.318 15.533 456.318 23.765C456.318 32.046 460.336 36.26 466.461 36.26C470.479 36.26 473.321 34.398 474.791 31.213L475.036 35.721H477.682V0H474.644ZM467.049 33.516C462.394 33.516 459.405 30.233 459.405 23.667C459.454 17.15 462.639 13.72 467.392 13.72C471.116 13.72 473.664 15.827 474.644 19.6V27.44C473.664 31.213 471.018 33.516 467.049 33.516Z" fill="black"/>
<path d="M505.19 22.54C505.19 14.553 500.829 10.976 495.145 10.976C488.628 10.976 484.12 15.876 484.12 23.667C484.071 31.801 488.53 36.26 494.998 36.26C499.751 36.26 503.573 34.055 504.798 29.351L502.054 28.812C501.123 31.948 498.673 33.565 495.047 33.565C490.637 33.565 487.403 30.38 487.207 24.108H505.141C505.19 23.618 505.19 23.128 505.19 22.54ZM495.047 13.671C499.016 13.671 502.005 15.876 502.299 21.56H487.305C487.893 16.366 490.882 13.671 495.047 13.671Z" fill="black"/>
<path d="M270.386 70.976C266.368 70.976 263.477 72.985 262.007 76.219L261.762 71.515H259.116V105.521H262.154V92.193C263.624 94.79 266.27 96.26 269.945 96.26C275.972 96.26 280.48 91.654 280.48 83.422C280.48 75.19 276.56 70.976 270.386 70.976ZM269.504 93.516C265.633 93.516 263.085 91.556 262.154 87.979V79.992C263.134 76.219 265.878 73.72 269.749 73.72C274.502 73.72 277.393 76.954 277.344 83.569C277.344 90.086 274.306 93.516 269.504 93.516Z" fill="black"/>
<path d="M303.137 71.564V87.293C302.402 90.282 299.854 93.565 295.542 93.565C291.524 93.565 289.613 91.066 289.613 86.509V71.564H286.526V86.999C286.526 93.075 289.466 96.26 294.807 96.26C299.364 96.26 301.912 93.908 303.186 91.458L303.431 95.721H306.175V71.564H303.137Z" fill="black"/>
<path d="M325.606 70.976C321.784 70.976 318.991 72.74 317.423 75.729V60H314.385V95.721H317.031L317.227 92.046C318.697 94.839 321.343 96.26 325.116 96.26C331.143 96.26 335.7 91.703 335.7 83.471C335.7 75.239 331.731 70.976 325.606 70.976ZM324.675 93.516C321 93.516 318.403 91.654 317.423 88.077V79.943C318.452 76.121 321.098 73.72 325.018 73.72C329.673 73.72 332.613 76.954 332.564 83.569C332.564 90.037 329.477 93.516 324.675 93.516Z" fill="black"/>
<path d="M342.335 95.721H345.373V60H342.335V95.721Z" fill="black"/>
<path d="M355.482 65.88C356.805 65.88 357.834 64.9 357.834 63.479C357.834 62.058 356.805 61.029 355.482 61.029C354.159 61.029 353.081 62.058 353.081 63.479C353.081 64.9 354.159 65.88 355.482 65.88ZM353.963 95.721H357.001V71.564H353.963V95.721Z" fill="black"/>
<path d="M382.25 71.564L382.054 75.484C380.682 72.642 377.987 70.976 374.165 70.976C368.383 70.976 363.581 75.533 363.581 83.765C363.581 91.997 367.648 96.26 373.724 96.26C377.546 96.26 380.339 94.545 381.858 91.654V105.521H384.896V71.564H382.25ZM374.361 93.516C369.706 93.516 366.668 90.233 366.668 83.667C366.717 77.101 369.951 73.72 374.606 73.72C378.428 73.72 380.976 75.827 381.858 79.306V87.685C380.878 91.262 378.232 93.516 374.361 93.516Z" fill="black"/>
<path d="M409.367 71.564V87.293C408.632 90.282 406.084 93.565 401.772 93.565C397.754 93.565 395.843 91.066 395.843 86.509V71.564H392.756V86.999C392.756 93.075 395.696 96.26 401.037 96.26C405.594 96.26 408.142 93.908 409.416 91.458L409.661 95.721H412.405V71.564H409.367Z" fill="black"/>
<path d="M439.872 82.54C439.872 74.553 435.511 70.976 429.827 70.976C423.31 70.976 418.802 75.876 418.802 83.667C418.753 91.801 423.212 96.26 429.68 96.26C434.433 96.26 438.255 94.055 439.48 89.351L436.736 88.812C435.805 91.948 433.355 93.565 429.729 93.565C425.319 93.565 422.085 90.38 421.889 84.108H439.823C439.872 83.618 439.872 83.128 439.872 82.54ZM429.729 73.671C433.698 73.671 436.687 75.876 436.981 81.56H421.987C422.575 76.366 425.564 73.671 429.729 73.671Z" fill="black"/>
<path d="M275.629 120V135.239C274.208 132.495 271.611 130.976 267.936 130.976C261.958 130.976 257.303 135.533 257.303 143.765C257.303 152.046 261.321 156.26 267.446 156.26C271.464 156.26 274.306 154.398 275.776 151.213L276.021 155.721H278.667V120H275.629ZM268.034 153.516C263.379 153.516 260.39 150.233 260.39 143.667C260.439 137.15 263.624 133.72 268.377 133.72C272.101 133.72 274.649 135.827 275.629 139.6V147.44C274.649 151.213 272.003 153.516 268.034 153.516Z" fill="black"/>
<path d="M303.137 131.564V147.293C302.402 150.282 299.854 153.565 295.542 153.565C291.524 153.565 289.613 151.066 289.613 146.509V131.564H286.526V146.999C286.526 153.075 289.466 156.26 294.807 156.26C299.364 156.26 301.912 153.908 303.186 151.458L303.431 155.721H306.175V131.564H303.137Z" fill="black"/>
<path d="M325.116 130.976C320.951 130.976 318.55 133.475 317.374 136.268L317.129 131.564H314.385V155.721H317.423V141.07C318.06 137.248 320.51 134.21 324.675 134.21C325.655 134.21 326.39 134.308 327.223 134.553L327.762 131.368C326.929 131.074 326.145 130.976 325.116 130.976Z" fill="black"/>
<path d="M350.867 153.271C350.524 153.418 350.181 153.516 349.544 153.516C348.515 153.516 348.172 152.83 348.172 151.654V139.943C348.172 133.769 345.33 130.976 339.303 130.976C334.403 130.976 331.218 133.377 330.434 137.64L333.178 138.13C333.815 134.945 336.069 133.72 339.156 133.72C343.174 133.72 345.134 135.631 345.134 139.894V142.54C343.517 142.344 341.998 142.197 339.989 142.197C333.374 142.197 329.65 144.843 329.65 149.645C329.65 154.006 332.639 156.309 337.098 156.309C340.626 156.309 343.37 155.035 345.281 152.536C345.33 155.035 346.653 156.113 348.907 156.113C349.642 156.113 350.377 155.966 351.161 155.672L350.867 153.271ZM337.686 153.761C334.648 153.761 332.688 152.389 332.688 149.498C332.688 146.215 335.285 144.647 340.038 144.647C342.145 144.647 343.86 144.745 345.134 144.941V149.351C343.37 152.536 340.773 153.761 337.686 153.761Z" fill="black"/>
<path d="M367.428 130.976C363.606 130.976 360.813 132.74 359.245 135.729V120H356.207V155.721H358.853L359.049 152.046C360.519 154.839 363.165 156.26 366.938 156.26C372.965 156.26 377.522 151.703 377.522 143.471C377.522 135.239 373.553 130.976 367.428 130.976ZM366.497 153.516C362.822 153.516 360.225 151.654 359.245 148.077V139.943C360.274 136.121 362.92 133.72 366.84 133.72C371.495 133.72 374.435 136.954 374.386 143.569C374.386 150.037 371.299 153.516 366.497 153.516Z" fill="black"/>
<path d="M384.157 155.721H387.195V120H384.157V155.721Z" fill="black"/>
<path d="M414.846 142.54C414.846 134.553 410.485 130.976 404.801 130.976C398.284 130.976 393.776 135.876 393.776 143.667C393.727 151.801 398.186 156.26 404.654 156.26C409.407 156.26 413.229 154.055 414.454 149.351L411.71 148.812C410.779 151.948 408.329 153.565 404.703 153.565C400.293 153.565 397.059 150.38 396.863 144.108H414.797C414.846 143.618 414.846 143.128 414.846 142.54ZM404.703 133.671C408.672 133.671 411.661 135.876 411.955 141.56H396.961C397.549 136.366 400.538 133.671 404.703 133.671Z" fill="black"/>
<path d="M278.373 202.54C278.373 194.553 274.012 190.976 268.328 190.976C261.811 190.976 257.303 195.876 257.303 203.667C257.254 211.801 261.713 216.26 268.181 216.26C272.934 216.26 276.756 214.055 277.981 209.351L275.237 208.812C274.306 211.948 271.856 213.565 268.23 213.565C263.82 213.565 260.586 210.38 260.39 204.108H278.324C278.373 203.618 278.373 203.128 278.373 202.54ZM268.23 193.671C272.199 193.671 275.188 195.876 275.482 201.56H260.488C261.076 196.366 264.065 193.671 268.23 193.671Z" fill="black"/>
<path d="M295.938 190.976C291.626 190.976 289.029 193.23 287.706 195.68L287.461 191.564H284.717V215.721H287.755V200.09C288.392 196.954 290.891 193.769 295.203 193.769C299.417 193.769 301.573 196.562 301.573 201.462V215.721H304.611V200.727C304.611 194.406 301.426 190.976 295.938 190.976Z" fill="black"/>
<path d="M345.82 183.087V207.538L345.918 210.821L327.004 183.087H323.966V215.721H326.955V191.172L326.808 187.84L345.722 215.721H348.76V183.087H345.82Z" fill="black"/>
<path d="M366.86 216.26C373.769 216.26 378.228 211.262 378.228 203.569C378.228 195.729 373.818 190.976 366.909 190.976C359.951 190.976 355.541 195.974 355.541 203.618C355.541 211.507 359.902 216.26 366.86 216.26ZM366.909 213.565C361.862 213.565 358.677 209.841 358.677 203.569C358.677 197.395 361.764 193.671 366.86 193.671C372.005 193.671 375.141 197.444 375.141 203.618C375.141 209.792 372.005 213.565 366.909 213.565Z" fill="black"/>
<path d="M395.314 190.976C391.149 190.976 388.748 193.475 387.572 196.268L387.327 191.564H384.583V215.721H387.621V201.07C388.258 197.248 390.708 194.21 394.873 194.21C395.853 194.21 396.588 194.308 397.421 194.553L397.96 191.368C397.127 191.074 396.343 190.976 395.314 190.976Z" fill="black"/>
<path d="M430.117 190.976C425.413 190.976 422.718 193.72 421.444 196.513C420.366 192.887 417.622 190.976 413.555 190.976C409.341 190.976 406.744 193.181 405.421 195.68L405.176 191.564H402.432V215.721H405.47V200.09C406.107 196.905 408.606 193.769 412.722 193.769C416.838 193.769 418.945 196.464 418.945 201.119V215.721H421.983V200.58V200.335C422.522 197.101 425.119 193.769 429.333 193.769C433.4 193.769 435.507 196.464 435.507 201.119V215.721H438.545V200.58C438.545 194.357 435.507 190.976 430.117 190.976Z" fill="black"/>
<path d="M465.663 213.271C465.32 213.418 464.977 213.516 464.34 213.516C463.311 213.516 462.968 212.83 462.968 211.654V199.943C462.968 193.769 460.126 190.976 454.099 190.976C449.199 190.976 446.014 193.377 445.23 197.64L447.974 198.13C448.611 194.945 450.865 193.72 453.952 193.72C457.97 193.72 459.93 195.631 459.93 199.894V202.54C458.313 202.344 456.794 202.197 454.785 202.197C448.17 202.197 444.446 204.843 444.446 209.645C444.446 214.006 447.435 216.309 451.894 216.309C455.422 216.309 458.166 215.035 460.077 212.536C460.126 215.035 461.449 216.113 463.703 216.113C464.438 216.113 465.173 215.966 465.957 215.672L465.663 213.271ZM452.482 213.761C449.444 213.761 447.484 212.389 447.484 209.498C447.484 206.215 450.081 204.647 454.834 204.647C456.941 204.647 458.656 204.745 459.93 204.941V209.351C458.166 212.536 455.569 213.761 452.482 213.761Z" fill="black"/>
<path d="M482.224 190.976C477.912 190.976 475.315 193.23 473.992 195.68L473.747 191.564H471.003V215.721H474.041V200.09C474.678 196.954 477.177 193.769 481.489 193.769C485.703 193.769 487.859 196.562 487.859 201.462V215.721H490.897V200.727C490.897 194.406 487.712 190.976 482.224 190.976Z" fill="black"/>
<path d="M515.27 180V195.239C513.849 192.495 511.252 190.976 507.577 190.976C501.599 190.976 496.944 195.533 496.944 203.765C496.944 212.046 500.962 216.26 507.087 216.26C511.105 216.26 513.947 214.398 515.417 211.213L515.662 215.721H518.308V180H515.27ZM507.675 213.516C503.02 213.516 500.031 210.233 500.031 203.667C500.08 197.15 503.265 193.72 508.018 193.72C511.742 193.72 514.29 195.827 515.27 199.6V207.44C514.29 211.213 511.644 213.516 507.675 213.516Z" fill="black"/>
<path d="M528.273 185.88C529.596 185.88 530.626 184.9 530.626 183.479C530.626 182.058 529.596 181.029 528.273 181.029C526.95 181.029 525.872 182.058 525.872 183.479C525.872 184.9 526.95 185.88 528.273 185.88ZM526.755 215.721H529.793V191.564H526.755V215.721Z" fill="black"/>
<path d="M557.443 202.54C557.443 194.553 553.082 190.976 547.398 190.976C540.881 190.976 536.373 195.876 536.373 203.667C536.324 211.801 540.783 216.26 547.251 216.26C552.004 216.26 555.826 214.055 557.051 209.351L554.307 208.812C553.376 211.948 550.926 213.565 547.3 213.565C542.89 213.565 539.656 210.38 539.46 204.108H557.394C557.443 203.618 557.443 203.128 557.443 202.54ZM547.3 193.671C551.269 193.671 554.258 195.876 554.552 201.56H539.558C540.146 196.366 543.135 193.671 547.3 193.671Z" fill="black"/>
<path d="M34.2708 39.4063C34.7569 40.1311 35 40.8357 35 41.5201C35 42.4461 34.6152 43.2111 33.8455 43.815C33.1163 44.419 32.2454 44.7209 31.2326 44.7209C30.5845 44.7209 29.9566 44.58 29.349 44.2982C28.7818 43.9761 28.2957 43.5131 27.8906 42.9092L19.809 30.7097C18.9988 29.4213 18.1279 28.5154 17.1962 27.992C16.305 27.4686 15.1302 27.2069 13.6719 27.2069H7.71701V40.735C7.71701 41.9429 7.37268 42.9092 6.68403 43.6339C5.99537 44.3183 5.06366 44.6606 3.88889 44.6606C2.71412 44.6606 1.76215 44.3183 1.03299 43.6339C0.344329 42.9092 0 41.9429 0 40.735V5.40494C0 4.23733 0.324074 3.33143 0.972222 2.68724C1.66088 2.04304 2.59259 1.72095 3.76736 1.72095H18.9583C23.8194 1.72095 27.5058 2.80803 30.0174 4.98218C32.5694 7.11608 33.8455 10.2163 33.8455 14.2827C33.8455 17.5842 32.8935 20.3019 30.9896 22.4358C29.1262 24.5295 26.4728 25.8783 23.0295 26.4822C24.2043 26.764 25.2373 27.2673 26.1285 27.992C27.0197 28.7167 27.8906 29.7233 28.7413 31.0117L34.2708 39.4063ZM17.8646 21.228C20.8218 21.228 22.989 20.6844 24.3663 19.5974C25.7436 18.47 26.4323 16.7589 26.4323 14.4639C26.4323 12.1287 25.7436 10.4377 24.3663 9.39089C22.989 8.30382 20.8218 7.76027 17.8646 7.76027H7.65625V21.228H17.8646Z" fill="black"/>
<path d="M118.639 39.8496C118.88 40.3708 119 40.892 119 41.4133C119 42.3354 118.619 43.1172 117.858 43.7587C117.137 44.4002 116.296 44.7209 115.335 44.7209C114.694 44.7209 114.093 44.5606 113.532 44.2398C112.971 43.879 112.531 43.3377 112.21 42.6161L108.605 34.5573H87.4549L83.8498 42.6161C83.5293 43.3377 83.0887 43.879 82.5279 44.2398C81.9671 44.5606 81.3462 44.7209 80.6652 44.7209C79.7439 44.7209 78.9027 44.4002 78.1416 43.7587C77.3805 43.1172 77 42.3354 77 41.4133C77 40.892 77.1202 40.3708 77.3605 39.8496L93.9442 4.18668C94.3047 3.38482 94.8455 2.78342 95.5665 2.38248C96.3276 1.94146 97.1288 1.72095 97.97 1.72095C98.8112 1.72095 99.5923 1.94146 100.313 2.38248C101.074 2.78342 101.635 3.38482 101.996 4.18668L118.639 39.8496ZM90.0987 28.5433H105.961L98.03 10.6818L90.0987 28.5433Z" fill="black"/>
<path d="M192.309 1.72095C193.439 1.72095 194.326 2.08128 194.971 2.80195C195.657 3.48259 196 4.40344 196 5.56452V40.8173C196 41.9784 195.657 42.9193 194.971 43.6399C194.286 44.3606 193.398 44.7209 192.309 44.7209C191.018 44.7209 190.03 44.2605 189.345 43.3397L167.261 14.8131V40.8173C167.261 41.9784 166.938 42.9193 166.292 43.6399C165.647 44.3606 164.76 44.7209 163.63 44.7209C162.501 44.7209 161.613 44.3606 160.968 43.6399C160.323 42.9193 160 41.9784 160 40.8173V5.56452C160 4.40344 160.343 3.48259 161.029 2.80195C161.714 2.08128 162.622 1.72095 163.751 1.72095C165.002 1.72095 165.97 2.18137 166.655 3.10223L188.679 31.5087V5.56452C188.679 4.40344 189.002 3.48259 189.647 2.80195C190.333 2.08128 191.22 1.72095 192.309 1.72095Z" fill="black"/>
<path d="M21.0937 129.721C17.0392 129.721 13.4815 128.828 10.4208 127.043C7.39977 125.258 5.07439 122.702 3.44463 119.375C1.81488 116.048 1 112.153 1 107.691C1 103.228 1.81488 99.353 3.44463 96.0667C5.07439 92.7399 7.39977 90.1838 10.4208 88.3987C13.4815 86.6135 17.0392 85.7209 21.0937 85.7209C23.7172 85.7209 26.1817 86.1267 28.4872 86.9381C30.7927 87.709 32.8399 88.845 34.6286 90.3461C35.1454 90.7518 35.5031 91.1778 35.7019 91.6241C35.9006 92.0704 36 92.6181 36 93.2673C36 94.1599 35.7615 94.9104 35.2845 95.519C34.8075 96.1276 34.2311 96.4319 33.5554 96.4319C32.7604 96.4319 31.9455 96.1479 31.1107 95.5799C29.4015 94.2816 27.8115 93.389 26.3407 92.9021C24.87 92.3747 23.2402 92.111 21.4514 92.111C17.3174 92.111 14.1772 93.4296 12.0307 96.0667C9.92391 98.7039 8.87053 102.578 8.87053 107.691C8.87053 112.843 9.92391 116.738 12.0307 119.375C14.1772 122.012 17.3174 123.331 21.4514 123.331C23.1607 123.331 24.7308 123.067 26.1618 122.54C27.6326 122.012 29.2822 121.12 31.1107 119.862C31.5082 119.619 31.9057 119.416 32.3032 119.253C32.7007 119.091 33.1181 119.01 33.5554 119.01C34.2311 119.01 34.8075 119.314 35.2845 119.923C35.7615 120.531 36 121.282 36 122.175C36 122.783 35.9006 123.331 35.7019 123.818C35.5031 124.264 35.1454 124.69 34.6286 125.096C32.8399 126.597 30.7927 127.753 28.4872 128.565C26.1817 129.336 23.7172 129.721 21.0937 129.721Z" fill="black"/>
<path d="M6.86106 215.721C5.6947 215.721 4.74954 215.386 4.02559 214.717C3.34186 214.008 3 213.063 3 211.881V177.324C3 176.182 3.32176 175.296 3.96527 174.666C4.64899 174.036 5.57404 173.721 6.7404 173.721H21.5814C26.1261 173.721 29.6654 174.843 32.1993 177.088C34.7331 179.293 36 182.404 36 186.421C36 190.438 34.7331 193.569 32.1993 195.814C29.6654 198.058 26.1261 199.181 21.5814 199.181H10.7824V211.881C10.7824 213.063 10.4205 214.008 9.69653 214.717C9.0128 215.386 8.06764 215.721 6.86106 215.721ZM20.6161 193.333C25.9653 193.333 28.6399 191.049 28.6399 186.48C28.6399 181.912 25.9653 179.628 20.6161 179.628H10.7824V193.333H20.6161Z" fill="black"/>
<path d="M87.7149 215.721C86.5565 215.721 85.6377 215.403 84.9587 214.768C84.3196 214.132 84 213.239 84 212.087V177.355C84 176.203 84.3196 175.31 84.9587 174.674C85.6377 174.039 86.5565 173.721 87.7149 173.721H109.345C110.503 173.721 111.402 173.979 112.041 174.495C112.68 175.012 113 175.746 113 176.7C113 177.693 112.68 178.467 112.041 179.023C111.402 179.539 110.503 179.798 109.345 179.798H91.5496V191.355H108.147C109.305 191.355 110.204 191.613 110.843 192.129C111.482 192.646 111.802 193.4 111.802 194.393C111.802 195.346 111.482 196.081 110.843 196.598C110.204 197.114 109.305 197.372 108.147 197.372H91.5496V209.644H109.345C110.503 209.644 111.402 209.922 112.041 210.478C112.68 210.995 113 211.749 113 212.742C113 213.695 112.68 214.43 112.041 214.946C111.402 215.463 110.503 215.721 109.345 215.721H87.7149Z" fill="black"/>
<path d="M194.271 210.53C194.757 211.238 195 211.926 195 212.595C195 213.499 194.615 214.246 193.845 214.836C193.116 215.426 192.245 215.721 191.233 215.721C190.584 215.721 189.957 215.583 189.349 215.308C188.782 214.993 188.296 214.541 187.891 213.951L179.809 202.036C178.999 200.777 178.128 199.892 177.196 199.381C176.305 198.87 175.13 198.614 173.672 198.614H167.717V211.828C167.717 213.007 167.373 213.951 166.684 214.659C165.995 215.328 165.064 215.662 163.889 215.662C162.714 215.662 161.762 215.328 161.033 214.659C160.344 213.951 160 213.007 160 211.828V177.319C160 176.179 160.324 175.294 160.972 174.665C161.661 174.036 162.593 173.721 163.767 173.721H178.958C183.819 173.721 187.506 174.783 190.017 176.906C192.569 178.991 193.845 182.019 193.845 185.991C193.845 189.215 192.894 191.87 190.99 193.954C189.126 195.999 186.473 197.316 183.03 197.906C184.204 198.182 185.237 198.673 186.128 199.381C187.02 200.089 187.891 201.072 188.741 202.331L194.271 210.53ZM177.865 192.774C180.822 192.774 182.989 192.243 184.366 191.182C185.744 190.081 186.432 188.409 186.432 186.168C186.432 183.887 185.744 182.235 184.366 181.213C182.989 180.151 180.822 179.62 177.865 179.62H167.656V192.774H177.865Z" fill="black"/>
<path fill-rule="evenodd" clip-rule="evenodd" d="M156.232 100.489C155.256 99.5124 155.256 97.9295 156.232 96.9532L161.464 91.7209H99C90.1634 91.7209 83 98.8844 83 107.721C83 116.558 90.1634 123.721 99 123.721H108.964L116.732 115.953C117.709 114.977 119.291 114.977 120.268 115.953C121.244 116.929 121.244 118.512 120.268 119.489L116.036 123.721H179C187.837 123.721 195 116.558 195 107.721C195 98.8844 187.837 91.7209 179 91.7209H168.536L159.768 100.489C158.791 101.465 157.209 101.465 156.232 100.489ZM115.036 129.721H179C191.15 129.721 201 119.871 201 107.721C201 95.5707 191.15 85.7209 179 85.7209H167.536L159.768 77.9532C158.791 76.9769 157.209 76.9769 156.232 77.9532C155.256 78.9295 155.256 80.5124 156.232 81.4887L160.464 85.7209H99C86.8497 85.7209 77 95.5707 77 107.721C77 119.871 86.8497 129.721 99 129.721H107.964L116.732 138.489C117.709 139.465 119.291 139.465 120.268 138.489C121.244 137.512 121.244 135.929 120.268 134.953L115.036 129.721Z" fill="black"/>
</svg>
