<svg width="746" height="183" viewBox="0 0 746 183" fill="none" xmlns="http://www.w3.org/2000/svg">
<path d="M131.587 61H169.667V56.954H160.861C156.696 56.954 155.863 53.146 155.863 49.338V16.018C158.957 13.162 162.051 11.139 167.644 11.139C172.047 11.139 176.212 12.805 179.068 15.899L182.162 3.99902C180.734 1.73802 177.878 0.0720215 173.832 0.0720215C166.811 0.0720215 160.742 6.14102 155.863 11.853V1.26202L131.587 1.26202V5.30802L138.013 5.30802C142.178 5.30802 143.011 9.11602 143.011 12.924V56.954H131.587V61Z" fill="black"/>
<path d="M206.511 5.66502C214.603 5.66502 218.411 8.40202 218.173 16.256L217.935 24.348C205.202 28.632 184.853 33.987 184.853 48.743C184.853 56.716 190.684 62.19 199.133 62.19C208.772 62.19 214.603 55.169 217.935 50.766L232.215 63.618L241.378 54.931L229.121 44.578L230.906 16.256C231.501 6.02202 226.741 0.0720215 214.365 0.0720215C200.323 0.0720215 185.805 6.85502 185.805 17.327C185.805 19.945 187.352 21.373 189.613 21.373C195.087 21.373 198.538 15.542 198.538 9.71102V7.21202C200.68 6.37902 203.06 5.66502 206.511 5.66502ZM197.586 45.173C197.586 35.296 207.463 30.536 217.697 29.703L217.221 46.482C215.793 48.743 212.104 53.265 206.035 53.265C200.799 53.265 197.586 50.409 197.586 45.173Z" fill="black"/>
<path d="M245.706 61H279.026V56.954H274.98C270.815 56.954 269.982 53.146 269.982 49.338V14.709C273.433 11.972 277.717 9.59202 282.953 9.59202C291.045 9.59202 294.377 13.162 294.377 22.444V56.954H285.809V61H318.653V56.954H312.227C308.062 56.954 307.229 53.146 307.229 49.338V19.588C307.229 6.49802 299.375 0.0720215 288.546 0.0720215C280.216 0.0720215 274.504 5.42702 269.982 10.425V1.26202L245.706 1.26202V5.30802L252.132 5.30802C256.297 5.30802 257.13 9.11602 257.13 12.924V56.954H245.706V61Z" fill="black"/>
<path d="M47.0744 111.231C49.5734 111.231 51.1205 109.922 51.1205 107.066C51.1205 100.164 43.0285 92.072 29.1055 92.072C11.9694 92.072 0.783447 105.638 0.783447 123.845C0.783447 141.1 10.1844 154.19 28.9864 154.19C40.6485 154.19 48.7405 148.478 53.8575 143.599L51.7154 140.505C48.7404 142.647 43.7424 145.503 35.7694 145.503C21.6084 145.503 12.8024 135.626 12.8024 118.014C12.8024 104.686 19.2284 96.594 29.5814 96.594C32.4374 96.594 34.5795 96.951 36.3644 97.665V98.736C36.3644 105.4 40.8864 111.231 47.0744 111.231Z" fill="black"/>
<path d="M89.9005 154.19C106.679 154.19 121.198 142.171 121.198 121.703C121.198 103.615 108.822 92.072 92.1615 92.072C75.5015 92.072 60.8645 104.329 60.8645 124.559C60.8645 142.885 73.3595 154.19 89.9005 154.19ZM73.2405 116.11C73.2405 104.805 78.2385 98.498 86.9255 98.498C97.8735 98.498 108.822 110.398 108.822 130.152C108.822 141.457 103.942 147.764 95.1365 147.764C84.1885 147.764 73.2405 135.864 73.2405 116.11Z" fill="black"/>
<path d="M153.394 145.622V106.947C156.488 104.448 160.772 102.306 166.841 102.306C178.384 102.306 187.785 109.684 187.785 125.868C187.785 140.386 180.407 150.144 167.079 150.144C160.534 150.144 156.131 148.24 153.394 145.622ZM129.118 182.75H167.674V178.704H158.392C154.227 178.704 153.394 174.896 153.394 171.088V152.167C157.083 153.238 162.081 154.19 167.912 154.19C184.929 154.19 200.161 143.48 200.161 121.584C200.161 103.734 188.499 92.072 174.695 92.072C166.365 92.072 159.582 97.07 153.394 102.544V93.262H129.118V97.308H135.544C139.709 97.308 140.542 101.116 140.542 104.924V178.704H129.118V182.75Z" fill="black"/>
<path d="M263.004 111.112C259.553 100.045 251.818 92.072 238.609 92.072C222.425 92.072 211.358 105.043 211.358 123.607C211.358 140.386 220.402 154.19 239.561 154.19C251.461 154.19 259.434 148.359 264.432 143.48L262.29 140.386C259.315 142.647 254.317 145.503 246.344 145.503C231.945 145.503 223.258 135.388 223.258 118.371L263.004 111.112ZM223.377 113.849C224.329 102.901 228.375 96.594 234.801 96.594C242.06 96.594 245.63 101.592 248.129 109.327L223.377 113.849Z" fill="black"/>
<path d="M269.645 153H307.725V148.954H298.919C294.754 148.954 293.921 145.146 293.921 141.338V108.018C297.015 105.162 300.109 103.139 305.702 103.139C310.105 103.139 314.27 104.805 317.126 107.899L320.22 95.999C318.792 93.738 315.936 92.072 311.89 92.072C304.869 92.072 298.8 98.141 293.921 103.853V93.262H269.645V97.308H276.071C280.236 97.308 281.069 101.116 281.069 104.924V148.954H269.645V153Z" fill="black"/>
<path d="M366.76 19.084C366.76 29.02 373.476 35.46 383.872 35.46C389.852 35.46 394.268 33.896 398.04 31.55L397.12 26.95C395.28 30.86 391.692 33.62 385.436 33.62C377.616 33.62 371.636 28.56 371.636 17.704C371.636 7.40004 378.03 1.88004 386.724 1.88004C391.6 1.88004 394.912 3.53604 396.568 5.65204L397.488 1.05204C394.544 0.31604 391.876 0.0400391 388.196 0.0400391C375.5 0.0400391 366.76 7.67604 366.76 19.084Z" fill="black"/>
<path d="M413.232 35.46C419.396 35.46 425.192 30.86 425.192 22.948C425.192 15.864 420.362 11.54 414.152 11.54C407.988 11.54 402.192 16.14 402.192 24.052C402.192 31.136 407.022 35.46 413.232 35.46ZM406.148 21.016C406.148 16.416 408.357 13.84 412.129 13.84C416.637 13.84 421.237 18.164 421.237 25.984C421.237 30.584 419.028 33.16 415.257 33.16C410.748 33.16 406.148 28.836 406.148 21.016Z" fill="black"/>
<path d="M428.855 35H441.275V33.62H439.435C437.871 33.62 437.595 32.24 437.595 30.86V17.06C438.975 15.864 440.815 14.76 443.115 14.76C445.875 14.76 447.439 16.324 447.439 19.82V33.62H444.679V35H455.259V33.62H453.419C451.855 33.62 451.579 32.24 451.579 30.86V17.06C452.959 15.864 454.799 14.76 457.099 14.76C459.859 14.76 461.423 16.324 461.423 19.82V33.62H458.663V35H470.163V33.62H467.403C465.839 33.62 465.563 32.24 465.563 30.86V18.9C465.563 14.024 463.079 11.54 459.399 11.54C455.581 11.54 453.235 13.886 451.395 15.91C450.935 13.334 448.451 11.54 445.415 11.54C441.735 11.54 439.435 13.748 437.595 15.68V12H428.855V13.38H431.615C433.179 13.38 433.455 14.76 433.455 16.14V33.62H428.855V35Z" fill="black"/>
<path d="M472.024 35H484.444V33.62H482.604C481.04 33.62 480.764 32.24 480.764 30.86V17.06C482.144 15.864 483.984 14.76 486.284 14.76C489.044 14.76 490.608 16.324 490.608 19.82V33.62H487.848V35H498.428V33.62H496.588C495.024 33.62 494.748 32.24 494.748 30.86V17.06C496.128 15.864 497.968 14.76 500.268 14.76C503.028 14.76 504.592 16.324 504.592 19.82V33.62H501.832V35H513.332V33.62H510.572C509.008 33.62 508.732 32.24 508.732 30.86V18.9C508.732 14.024 506.248 11.54 502.568 11.54C498.75 11.54 496.404 13.886 494.564 15.91C494.104 13.334 491.62 11.54 488.584 11.54C484.904 11.54 482.604 13.748 480.764 15.68V12H472.024V13.38H474.784C476.348 13.38 476.624 14.76 476.624 16.14V33.62H472.024V35Z" fill="black"/>
<path d="M524.026 13.564C527.338 13.564 529.086 14.484 528.994 17.52L528.902 20.786C524.532 22.35 515.93 24.512 515.93 30.308C515.93 33.344 518.138 35.46 521.358 35.46C525.176 35.46 527.614 32.47 528.81 30.906L534.238 35.92L537.182 32.976L532.49 28.928L533.134 17.796C533.364 13.748 531.57 11.54 527.062 11.54C521.956 11.54 516.298 14.116 516.298 18.072C516.298 18.992 516.85 19.452 517.586 19.452C519.61 19.452 520.806 17.198 520.806 15.128V14.208C521.634 13.84 522.646 13.564 524.026 13.564ZM520.162 29.204C520.162 24.972 524.854 23.132 528.81 22.718L528.626 29.296C528.074 30.308 526.418 32.424 523.658 32.424C521.542 32.424 520.162 31.32 520.162 29.204Z" fill="black"/>
<path d="M539.003 35H551.423V33.62H549.583C548.019 33.62 547.743 32.24 547.743 30.86V17.06C549.123 15.864 550.963 14.76 553.263 14.76C556.483 14.76 558.047 16.14 558.047 19.82V33.62H554.367V35H566.787V33.62H564.027C562.463 33.62 562.187 32.24 562.187 30.86V18.9C562.187 14.024 559.243 11.54 555.103 11.54C551.837 11.54 549.537 13.748 547.743 15.68V12H539.003V13.38H541.763C543.327 13.38 543.603 14.76 543.603 16.14V33.62H539.003V35Z" fill="black"/>
<path d="M596.758 32.792L596.298 31.412L593.538 32.24C592.25 32.608 591.698 31.872 591.698 30.492V0.500038H582.038V1.88004H585.718C587.282 1.88004 587.558 3.26004 587.558 4.64004V12.46C586.132 12 584.016 11.54 581.578 11.54C575.598 11.54 569.526 15.68 569.526 24.052C569.526 30.952 574.218 35.46 579.462 35.46C583.05 35.46 585.994 32.976 587.65 31.596V35.552L596.758 32.792ZM573.482 22.12C573.482 16.6 576.61 12.92 581.67 12.92C584.338 12.92 586.362 13.656 587.558 14.668V30.124C586.178 31.044 584.798 31.872 582.038 31.872C577.622 31.872 573.482 29.296 573.482 22.12Z" fill="black"/>
<path d="M618.59 18.624C617.256 14.484 614.266 11.54 609.344 11.54C603.18 11.54 599.04 16.508 599.04 23.684C599.04 30.124 602.536 35.46 609.896 35.46C614.22 35.46 617.348 33.344 619.188 31.596L618.452 30.492C617.44 31.32 615.324 32.516 612.104 32.516C606.4 32.516 602.812 28.56 602.812 21.844V21.522L618.59 18.624ZM602.904 19.958C603.318 15.45 605.204 13.012 607.872 13.012C611 13.012 612.564 15.036 613.668 17.98L602.904 19.958Z" fill="black"/>
<path d="M373.66 91.332V76.244C375.04 75.14 376.88 74.128 379.64 74.128C384.24 74.128 388.196 76.98 388.196 83.42C388.196 89.216 385.068 93.08 379.548 93.08C376.788 93.08 374.856 92.344 373.66 91.332ZM364.92 105.5H379.18V104.12H375.5C373.936 104.12 373.66 102.74 373.66 101.36V93.54C375.132 94 377.386 94.46 379.824 94.46C386.264 94.46 392.152 90.32 392.152 81.948C392.152 75.048 387.46 70.54 382.216 70.54C378.904 70.54 376.144 72.656 373.66 74.818V71H364.92V72.38H367.68C369.244 72.38 369.52 73.76 369.52 75.14V104.12H364.92V105.5Z" fill="black"/>
<path d="M419.113 94.92L422.057 91.976L417.825 87.928V71H410.005V72.38H411.845C413.409 72.38 413.685 73.76 413.685 75.14V88.94C412.305 90.136 410.649 91.24 408.349 91.24C405.129 91.24 403.657 89.86 403.657 86.18V71H394.917V72.38H397.677C399.241 72.38 399.517 73.76 399.517 75.14V87.1C399.517 91.976 402.369 94.46 406.509 94.46C410.005 94.46 412.259 92.114 414.145 90.09L419.113 94.92Z" fill="black"/>
<path d="M431.354 93.356C433.286 93.908 435.448 94.46 438.346 94.46C445.246 94.46 451.134 90.32 451.134 81.948C451.134 75.048 446.442 70.54 441.198 70.54C437.886 70.54 435.126 72.656 432.642 74.818V59.5H423.902V60.88H426.662C428.226 60.88 428.502 62.26 428.502 63.64V95.38L431.354 93.356ZM432.642 91.332V76.244C434.022 75.14 435.862 74.128 438.622 74.128C443.222 74.128 447.178 76.98 447.178 83.42C447.178 89.216 444.05 93.08 438.53 93.08C435.77 93.08 433.838 92.344 432.642 91.332Z" fill="black"/>
<path d="M454.359 59.5V60.88H457.119C458.683 60.88 458.959 62.26 458.959 63.64V92.62H454.359V94H467.699V92.62H464.939C463.375 92.62 463.099 91.24 463.099 89.86V59.5H454.359Z" fill="black"/>
<path d="M473.775 59.5V65.02H479.295V59.5H473.775ZM470.003 94H483.343V92.62H480.583C479.019 92.62 478.743 91.24 478.743 89.86V71H470.003V72.38H472.763C474.327 72.38 474.603 73.76 474.603 75.14V92.62H470.003V94Z" fill="black"/>
<path d="M505.048 73.668V88.848C503.668 89.952 501.828 90.872 499.068 90.872C494.468 90.872 490.512 88.112 490.512 81.12C490.512 75.324 493.824 71.92 499.16 71.92C501.92 71.92 503.852 72.656 505.048 73.668ZM486.556 83.052C486.556 89.952 491.248 94.46 496.492 94.46C499.804 94.46 502.61 92.436 505.048 90.228V104.12H499.068V105.5H513.788V104.12H511.028C509.464 104.12 509.188 102.74 509.188 101.36V69.62L506.244 71.736C504.312 71.184 502.196 70.54 498.976 70.54C492.352 70.54 486.556 74.772 486.556 83.052Z" fill="black"/>
<path d="M538.425 94.92L541.369 91.976L537.137 87.928V71H529.317V72.38H531.157C532.721 72.38 532.997 73.76 532.997 75.14V88.94C531.617 90.136 529.961 91.24 527.661 91.24C524.441 91.24 522.969 89.86 522.969 86.18V71H514.229V72.38H516.989C518.553 72.38 518.829 73.76 518.829 75.14V87.1C518.829 91.976 521.681 94.46 525.821 94.46C529.317 94.46 531.571 92.114 533.457 90.09L538.425 94.92Z" fill="black"/>
<path d="M564.145 77.624C562.811 73.484 559.821 70.54 554.899 70.54C548.735 70.54 544.595 75.508 544.595 82.684C544.595 89.124 548.091 94.46 555.451 94.46C559.775 94.46 562.903 92.344 564.743 90.596L564.007 89.492C562.995 90.32 560.879 91.516 557.659 91.516C551.955 91.516 548.367 87.56 548.367 80.844V80.522L564.145 77.624ZM548.459 78.958C548.873 74.45 550.759 72.012 553.427 72.012C556.555 72.012 558.119 74.036 559.223 76.98L548.459 78.958Z" fill="black"/>
<path d="M605.608 91.792L605.148 90.412L602.388 91.24C601.1 91.608 600.548 90.872 600.548 89.492V59.5H590.888V60.88H594.568C596.132 60.88 596.408 62.26 596.408 63.64V71.46C594.982 71 592.866 70.54 590.428 70.54C584.448 70.54 578.376 74.68 578.376 83.052C578.376 89.952 583.068 94.46 588.312 94.46C591.9 94.46 594.844 91.976 596.5 90.596V94.552L605.608 91.792ZM582.332 81.12C582.332 75.6 585.46 71.92 590.52 71.92C593.188 71.92 595.212 72.656 596.408 73.668V89.124C595.028 90.044 593.648 90.872 590.888 90.872C586.472 90.872 582.332 88.296 582.332 81.12Z" fill="black"/>
<path d="M630.246 94.92L633.19 91.976L628.958 87.928V71H621.138V72.38H622.978C624.542 72.38 624.818 73.76 624.818 75.14V88.94C623.438 90.136 621.782 91.24 619.482 91.24C616.262 91.24 614.79 89.86 614.79 86.18V71H606.05V72.38H608.81C610.374 72.38 610.65 73.76 610.65 75.14V87.1C610.65 91.976 613.502 94.46 617.642 94.46C621.138 94.46 623.392 92.114 625.278 90.09L630.246 94.92Z" fill="black"/>
<path d="M635.495 94H649.755V92.62H646.075C644.511 92.62 644.235 91.24 644.235 89.86V76.428C645.523 75.14 646.719 74.22 649.111 74.22C650.813 74.22 652.331 74.772 653.435 75.876L654.263 71.736C653.711 71 652.607 70.54 651.135 70.54C648.513 70.54 646.075 72.886 644.235 75.048V71H635.495V72.38H638.255C639.819 72.38 640.095 73.76 640.095 75.14V92.62H635.495V94Z" fill="black"/>
<path d="M663.688 72.564C667 72.564 668.748 73.484 668.656 76.52L668.564 79.786C664.194 81.35 655.592 83.512 655.592 89.308C655.592 92.344 657.8 94.46 661.02 94.46C664.838 94.46 667.276 91.47 668.472 89.906L673.9 94.92L676.844 91.976L672.152 87.928L672.796 76.796C673.026 72.748 671.232 70.54 666.724 70.54C661.618 70.54 655.96 73.116 655.96 77.072C655.96 77.992 656.512 78.452 657.248 78.452C659.272 78.452 660.468 76.198 660.468 74.128V73.208C661.296 72.84 662.308 72.564 663.688 72.564ZM659.824 88.204C659.824 83.972 664.516 82.132 668.472 81.718L668.288 88.296C667.736 89.308 666.08 91.424 663.32 91.424C661.204 91.424 659.824 90.32 659.824 88.204Z" fill="black"/>
<path d="M685.657 93.356C687.589 93.908 689.751 94.46 692.649 94.46C699.549 94.46 705.437 90.32 705.437 81.948C705.437 75.048 700.745 70.54 695.501 70.54C692.189 70.54 689.429 72.656 686.945 74.818V59.5H678.205V60.88H680.965C682.529 60.88 682.805 62.26 682.805 63.64V95.38L685.657 93.356ZM686.945 91.332V76.244C688.325 75.14 690.165 74.128 692.925 74.128C697.525 74.128 701.481 76.98 701.481 83.42C701.481 89.216 698.353 93.08 692.833 93.08C690.073 93.08 688.141 92.344 686.945 91.332Z" fill="black"/>
<path d="M708.662 59.5V60.88H711.422C712.986 60.88 713.262 62.26 713.262 63.64V92.62H708.662V94H722.002V92.62H719.242C717.678 92.62 717.402 91.24 717.402 89.86V59.5H708.662Z" fill="black"/>
<path d="M744.776 77.624C743.442 73.484 740.452 70.54 735.53 70.54C729.366 70.54 725.226 75.508 725.226 82.684C725.226 89.124 728.722 94.46 736.082 94.46C740.406 94.46 743.534 92.344 745.374 90.596L744.638 89.492C743.626 90.32 741.51 91.516 738.29 91.516C732.586 91.516 728.998 87.56 728.998 80.844V80.522L744.776 77.624ZM729.09 78.958C729.504 74.45 731.39 72.012 734.058 72.012C737.186 72.012 738.75 74.036 739.854 76.98L729.09 78.958Z" fill="black"/>
<path d="M385.85 136.624C384.516 132.484 381.526 129.54 376.604 129.54C370.44 129.54 366.3 134.508 366.3 141.684C366.3 148.124 369.796 153.46 377.156 153.46C381.48 153.46 384.608 151.344 386.448 149.596L385.712 148.492C384.7 149.32 382.584 150.516 379.364 150.516C373.66 150.516 370.072 146.56 370.072 139.844V139.522L385.85 136.624ZM370.164 137.958C370.578 133.45 372.464 131.012 375.132 131.012C378.26 131.012 379.824 133.036 380.928 135.98L370.164 137.958Z" fill="black"/>
<path d="M388.56 153H400.98V151.62H399.14C397.576 151.62 397.3 150.24 397.3 148.86V135.06C398.68 133.864 400.52 132.76 402.82 132.76C406.04 132.76 407.604 134.14 407.604 137.82V151.62H403.924V153H416.344V151.62H413.584C412.02 151.62 411.744 150.24 411.744 148.86V136.9C411.744 132.024 408.8 129.54 404.66 129.54C401.394 129.54 399.094 131.748 397.3 133.68V130H388.56V131.38H391.32C392.884 131.38 393.16 132.76 393.16 134.14V151.62H388.56V153Z" fill="black"/>
<path d="M460.965 154.38V119.88H465.565V118.5H453.605V119.88H456.917C458.297 119.88 458.757 120.8 458.757 122.64V144.766L437.505 118.5H429.225V119.88H430.605C432.629 119.88 433.825 121.076 433.825 123.1V151.62H429.225V153H440.725V151.62H437.873C436.493 151.62 436.033 150.7 436.033 148.86V123.606L460.965 154.38Z" fill="black"/>
<path d="M479.402 153.46C485.566 153.46 491.362 148.86 491.362 140.948C491.362 133.864 486.532 129.54 480.322 129.54C474.158 129.54 468.362 134.14 468.362 142.052C468.362 149.136 473.192 153.46 479.402 153.46ZM472.318 139.016C472.318 134.416 474.526 131.84 478.298 131.84C482.806 131.84 487.406 136.164 487.406 143.984C487.406 148.584 485.198 151.16 481.426 151.16C476.918 151.16 472.318 146.836 472.318 139.016Z" fill="black"/>
<path d="M495.024 153H509.284V151.62H505.604C504.04 151.62 503.764 150.24 503.764 148.86V135.428C505.052 134.14 506.248 133.22 508.64 133.22C510.342 133.22 511.86 133.772 512.964 134.876L513.792 130.736C513.24 130 512.136 129.54 510.664 129.54C508.042 129.54 505.604 131.886 503.764 134.048V130H495.024V131.38H497.784C499.348 131.38 499.624 132.76 499.624 134.14V151.62H495.024V153Z" fill="black"/>
<path d="M515.284 153H527.704V151.62H525.864C524.3 151.62 524.024 150.24 524.024 148.86V135.06C525.404 133.864 527.244 132.76 529.544 132.76C532.304 132.76 533.868 134.324 533.868 137.82V151.62H531.108V153H541.688V151.62H539.848C538.284 151.62 538.008 150.24 538.008 148.86V135.06C539.388 133.864 541.228 132.76 543.528 132.76C546.288 132.76 547.852 134.324 547.852 137.82V151.62H545.092V153H556.592V151.62H553.832C552.268 151.62 551.992 150.24 551.992 148.86V136.9C551.992 132.024 549.508 129.54 545.828 129.54C542.01 129.54 539.664 131.886 537.824 133.91C537.364 131.334 534.88 129.54 531.844 129.54C528.164 129.54 525.864 131.748 524.024 133.68V130H515.284V131.38H518.044C519.608 131.38 519.884 132.76 519.884 134.14V151.62H515.284V153Z" fill="black"/>
<path d="M567.286 131.564C570.598 131.564 572.346 132.484 572.254 135.52L572.162 138.786C567.792 140.35 559.19 142.512 559.19 148.308C559.19 151.344 561.398 153.46 564.618 153.46C568.436 153.46 570.874 150.47 572.07 148.906L577.498 153.92L580.442 150.976L575.75 146.928L576.394 135.796C576.624 131.748 574.83 129.54 570.322 129.54C565.216 129.54 559.558 132.116 559.558 136.072C559.558 136.992 560.11 137.452 560.846 137.452C562.87 137.452 564.066 135.198 564.066 133.128V132.208C564.894 131.84 565.906 131.564 567.286 131.564ZM563.422 147.204C563.422 142.972 568.114 141.132 572.07 140.718L571.886 147.296C571.334 148.308 569.678 150.424 566.918 150.424C564.802 150.424 563.422 149.32 563.422 147.204Z" fill="black"/>
<path d="M582.263 153H594.683V151.62H592.843C591.279 151.62 591.003 150.24 591.003 148.86V135.06C592.383 133.864 594.223 132.76 596.523 132.76C599.743 132.76 601.307 134.14 601.307 137.82V151.62H597.627V153H610.047V151.62H607.287C605.723 151.62 605.447 150.24 605.447 148.86V136.9C605.447 132.024 602.503 129.54 598.363 129.54C595.097 129.54 592.797 131.748 591.003 133.68V130H582.263V131.38H585.023C586.587 131.38 586.863 132.76 586.863 134.14V151.62H582.263V153Z" fill="black"/>
<path d="M640.018 150.792L639.558 149.412L636.798 150.24C635.51 150.608 634.958 149.872 634.958 148.492V118.5H625.298V119.88H628.978C630.542 119.88 630.818 121.26 630.818 122.64V130.46C629.392 130 627.276 129.54 624.838 129.54C618.858 129.54 612.786 133.68 612.786 142.052C612.786 148.952 617.478 153.46 622.722 153.46C626.31 153.46 629.254 150.976 630.91 149.596V153.552L640.018 150.792ZM616.742 140.12C616.742 134.6 619.87 130.92 624.93 130.92C627.598 130.92 629.622 131.656 630.818 132.668V148.124C629.438 149.044 628.058 149.872 625.298 149.872C620.882 149.872 616.742 147.296 616.742 140.12Z" fill="black"/>
<path d="M645.152 118.5V124.02H650.672V118.5H645.152ZM641.38 153H654.72V151.62H651.96C650.396 151.62 650.12 150.24 650.12 148.86V130H641.38V131.38H644.14C645.704 131.38 645.98 132.76 645.98 134.14V151.62H641.38V153Z" fill="black"/>
<path d="M677.483 136.624C676.149 132.484 673.159 129.54 668.237 129.54C662.073 129.54 657.933 134.508 657.933 141.684C657.933 148.124 661.429 153.46 668.789 153.46C673.113 153.46 676.241 151.344 678.081 149.596L677.345 148.492C676.333 149.32 674.217 150.516 670.997 150.516C665.293 150.516 661.705 146.56 661.705 139.844V139.522L677.483 136.624ZM661.797 137.958C662.211 133.45 664.097 131.012 666.765 131.012C669.893 131.012 671.457 133.036 672.561 135.98L661.797 137.958Z" fill="black"/>
</svg>
