<?xml version="1.0" standalone="no"?>
<!DOCTYPE svg PUBLIC "-//W3C//DTD SVG 20010904//EN"
 "http://www.w3.org/TR/2001/REC-SVG-20010904/DTD/svg10.dtd">
<svg version="1.0" xmlns="http://www.w3.org/2000/svg"
 width="512.000000pt" height="512.000000pt" viewBox="0 0 512.000000 512.000000"
 preserveAspectRatio="xMidYMid meet">
<metadata>
Created by potrace 1.14, written by Peter Selinger 2001-2017
</metadata>
<g transform="translate(0.000000,512.000000) scale(0.100000,-0.100000)"
fill="#000000" stroke="none">
<path d="M3179 3651 c-50 -50 -42 -80 49 -174 42 -45 83 -86 90 -92 10 -8
-298 -11 -1110 -11 -617 1 -1150 -2 -1183 -7 -355 -45 -624 -297 -691 -646
-76 -397 185 -808 575 -906 97 -25 110 -26 326 -26 l200 0 171 -170 c94 -93
176 -170 182 -170 7 -1 18 -2 25 -3 51 -8 104 56 91 109 -3 14 -51 70 -106
124 -54 55 -95 101 -91 104 4 3 539 5 1188 5 838 0 1198 3 1242 11 303 56 549
283 629 582 23 87 28 274 9 359 -65 285 -267 510 -534 594 -111 35 -150 39
-416 40 l-242 1 -131 132 c-73 72 -144 141 -158 152 -38 30 -80 27 -115 -8z
m154 -524 c-15 -16 -61 -62 -101 -103 -60 -59 -75 -80 -79 -111 -4 -28 0 -44
14 -60 28 -32 67 -45 101 -32 15 5 101 84 192 174 l165 164 230 -3 c254 -3
294 -9 402 -62 197 -97 326 -317 317 -537 -4 -90 -48 -234 -86 -282 -5 -5 -26
-33 -49 -62 -65 -84 -180 -159 -291 -189 -58 -16 -163 -18 -1235 -19 -645 0
-1173 2 -1173 5 0 3 36 41 79 84 85 84 97 111 76 163 -15 37 -41 53 -84 53
-26 0 -54 -23 -185 -153 l-155 -154 -228 2 c-215 2 -232 4 -308 29 -139 45
-263 148 -327 273 -57 108 -69 158 -69 278 0 229 132 427 354 529 91 42 111
43 1314 43 l1154 0 -28 -30z"/>
</g>
</svg>
